<?xml version="1.0" encoding="utf-8"?>
<!-- Generator: Adobe Illustrator 14.0.0, SVG Export Plug-In  -->
<!DOCTYPE svg PUBLIC "-//W3C//DTD SVG 1.1//EN" "http://www.w3.org/Graphics/SVG/1.1/DTD/svg11.dtd" [
	<!ENTITY ns_flows "http://ns.adobe.com/Flows/1.0/">
]>
<svg version="1.1"
	 xmlns="http://www.w3.org/2000/svg" xmlns:xlink="http://www.w3.org/1999/xlink" xmlns:a="http://ns.adobe.com/AdobeSVGViewerExtensions/3.0/"
	 x="0px" y="0px" width="209px" height="90px" viewBox="0 0 209 90" enable-background="new 0 0 209 90" xml:space="preserve">
<defs>
</defs>
<g>
	<defs>
		<rect id="SVGID_1_" width="209.396" height="90"/>
	</defs>
	<clipPath id="SVGID_2_">
		<use xlink:href="#SVGID_1_"  overflow="visible"/>
	</clipPath>
	<path clip-path="url(#SVGID_2_)" fill="#005DAA" d="M28.011,41.369c0-3.6-2.519-5.435-9.237-10.306
		c-5.668-4.094-8.397-7.2-8.397-11.436c0-5.303,4.299-10.373,12.584-14.742H5.212v47.986h9.805
		C22.738,49.598,28.011,45.386,28.011,41.369"/>
	<path clip-path="url(#SVGID_2_)" fill="#005DAA" d="M47.265,4.885h-3.418c-10.399,3.907-17.095,9.077-17.095,14.813
		c0,2.611,0.629,4.729,7.557,9.741c7.348,5.294,9.867,7.835,9.867,11.577c0,2.886-1.793,7.444-8.863,11.854H53.2V21.706
		L47.265,4.885z"/>
	<polygon clip-path="url(#SVGID_2_)" points="72.856,4.885 57.624,4.885 65.052,28.561 	"/>
	<polygon clip-path="url(#SVGID_2_)" points="53.478,52.871 64.196,52.871 53.478,22.493 	"/>
	<polygon clip-path="url(#SVGID_2_)" points="91.27,4.885 75.95,4.885 84.071,28.561 	"/>
	<polygon clip-path="url(#SVGID_2_)" points="65.839,52.871 83.575,52.871 74.247,27.017 	"/>
	<polygon clip-path="url(#SVGID_2_)" points="85.258,52.871 101.466,52.871 101.466,4.885 101.275,4.885 	"/>
	<polygon clip-path="url(#SVGID_2_)" points="53.2,21.706 53.2,52.871 53.478,52.871 53.478,22.493 	"/>
	<path clip-path="url(#SVGID_2_)" d="M173.069,4.631h-23.616V19.84C153.823,14.275,162.116,9.092,173.069,4.631"/>
	<path clip-path="url(#SVGID_2_)" d="M149.453,37.787v15.078h23.56C161.83,48.494,153.728,43.333,149.453,37.787"/>
	<path clip-path="url(#SVGID_2_)" d="M196.538,4.631h-1.243c-10.091,3.059-33.813,10.767-33.813,24.051
		c0,13.659,22.748,20.872,33.779,24.183h1.276V4.631z"/>
	<rect x="101.188" y="4.626" clip-path="url(#SVGID_2_)" fill="#005DAA" width="16.635" height="48.287"/>
	<path clip-path="url(#SVGID_2_)" fill="#005DAA" d="M148.95,37.107c-1.942-2.736-2.96-5.56-2.96-8.426
		c0-2.785,1.033-5.523,2.96-8.178V4.631h0.503V4.626h-18.158v48.287h18.158v-0.049h-0.503V37.107z"/>
	<path clip-path="url(#SVGID_2_)" fill="#005DAA" d="M148.95,37.107v15.757h0.503V37.787
		C149.279,37.561,149.111,37.334,148.95,37.107"/>
	<path clip-path="url(#SVGID_2_)" fill="#005DAA" d="M148.95,20.503c0.16-0.221,0.33-0.443,0.503-0.663V4.63h-0.503V20.503z"/>
	<path clip-path="url(#SVGID_2_)" d="M11.954,61.106l-1.899-1.079c-0.836-0.475-1.374-0.851-1.598-1.117
		c-0.216-0.257-0.319-0.544-0.319-0.88c0-0.52,0.194-0.931,0.596-1.252c0.405-0.327,0.95-0.493,1.619-0.493
		c0.245,0,0.461,0.031,0.643,0.091c0.184,0.061,0.399,0.175,0.637,0.338l2.498,1.827v-3.16l-0.119-0.025
		c-0.553-0.116-1.106-0.204-1.645-0.26c-0.539-0.055-1.07-0.083-1.58-0.083c-1.63,0-2.902,0.321-3.779,0.957
		c-0.894,0.646-1.346,1.581-1.346,2.78c0,0.759,0.189,1.425,0.562,1.979c0.367,0.548,1,1.09,1.877,1.609l2.089,1.254
		c0.675,0.409,1.136,0.769,1.371,1.066c0.228,0.29,0.339,0.606,0.339,0.971c0,0.546-0.199,0.976-0.608,1.312
		c-0.412,0.338-0.967,0.51-1.649,0.51c-0.421,0-0.733-0.033-0.928-0.099c-0.192-0.064-0.389-0.186-0.586-0.36l-2.72-2.342v3.446
		l0.111,0.03c0.717,0.195,1.396,0.342,2.017,0.437c0.625,0.094,1.237,0.142,1.821,0.142c1.687,0,2.995-0.335,3.886-0.996
		c0.907-0.672,1.366-1.658,1.366-2.934c0-0.787-0.2-1.467-0.596-2.021C13.623,62.206,12.93,61.652,11.954,61.106"/>
	<path clip-path="url(#SVGID_2_)" d="M26.165,55.051c-2.119,0-3.813,0.642-5.035,1.907c-1.221,1.263-1.84,3.017-1.84,5.211
		c0,2.046,0.596,3.691,1.772,4.891c1.177,1.201,2.794,1.809,4.806,1.809c2.119,0,3.818-0.645,5.051-1.916
		c1.232-1.271,1.856-3.02,1.856-5.201c0-2.053-0.6-3.701-1.783-4.896C29.808,55.659,28.183,55.051,26.165,55.051 M28.573,66.228
		c-0.577,0.914-1.434,1.358-2.621,1.358c-1.099,0-1.907-0.454-2.47-1.39c-0.57-0.945-0.859-2.376-0.859-4.25
		c0-1.876,0.289-3.307,0.859-4.253c0.563-0.935,1.371-1.389,2.47-1.389c1.187,0,2.043,0.443,2.621,1.358
		c0.583,0.923,0.878,2.364,0.878,4.283C29.451,63.863,29.156,65.304,28.573,66.228"/>
	<path clip-path="url(#SVGID_2_)" d="M46.421,55.465c0.253,0.413,0.441,0.826,0.557,1.226c0.116,0.401,0.174,0.902,0.174,1.494
		v6.073c0,0.56-0.024,0.984-0.072,1.262c-0.046,0.272-0.124,0.515-0.229,0.72c-0.216,0.421-0.567,0.746-1.043,0.967
		c-0.486,0.227-1.101,0.341-1.825,0.341c-1.031,0-1.778-0.259-2.22-0.769c-0.448-0.517-0.674-1.417-0.674-2.676v-5.918
		c0-0.629,0.057-1.146,0.169-1.532c0.113-0.386,0.298-0.785,0.55-1.186l0.146-0.231h-4.844l0.162,0.236
		c0.288,0.419,0.499,0.833,0.628,1.229c0.129,0.395,0.194,0.914,0.194,1.542v6.413c0,1.475,0.445,2.563,1.321,3.234
		c0.865,0.662,2.263,0.997,4.154,0.997c1.271,0,2.358-0.17,3.231-0.505c0.888-0.342,1.526-0.841,1.896-1.484
		c0.177-0.312,0.306-0.667,0.383-1.056c0.076-0.386,0.114-0.97,0.114-1.74v-5.859c0-0.629,0.065-1.147,0.194-1.542
		c0.129-0.396,0.34-0.809,0.628-1.229l0.161-0.236h-3.895L46.421,55.465z"/>
	<path clip-path="url(#SVGID_2_)" d="M54.107,58.588l2.466-1.807c0.091-0.067,0.215-0.123,0.367-0.167
		c0.156-0.045,0.313-0.066,0.467-0.066h1.102v9.003c0,0.644-0.061,1.17-0.18,1.563c-0.119,0.396-0.312,0.807-0.572,1.222
		l-0.145,0.232h4.844l-0.15-0.233c-0.268-0.415-0.467-0.827-0.593-1.223c-0.125-0.395-0.189-0.92-0.189-1.562v-9.003h1.07
		c0.162,0,0.331,0.021,0.502,0.067c0.167,0.044,0.3,0.101,0.395,0.166l2.467,1.807v-3.353H54.107V58.588z"/>
	<path clip-path="url(#SVGID_2_)" d="M81.914,56.689c0.122-0.395,0.323-0.805,0.597-1.22l0.155-0.233h-4.883l0.149,0.232
		c0.275,0.429,0.476,0.85,0.598,1.25c0.123,0.402,0.185,0.915,0.185,1.525v2.842h-4.95v-2.842c0-0.637,0.062-1.159,0.185-1.555
		c0.123-0.396,0.32-0.808,0.587-1.221l0.15-0.232H69.82l0.144,0.23c0.268,0.429,0.468,0.85,0.594,1.253
		c0.126,0.401,0.189,0.914,0.189,1.524v7.308c0,0.615-0.063,1.132-0.189,1.534c-0.126,0.403-0.327,0.825-0.594,1.251l-0.144,0.232
		h4.866l-0.15-0.233c-0.267-0.414-0.464-0.825-0.587-1.222c-0.123-0.394-0.185-0.919-0.185-1.563v-3.192h4.95v3.192
		c0,0.616-0.062,1.132-0.185,1.535c-0.122,0.4-0.323,0.821-0.598,1.249l-0.149,0.233h4.883l-0.155-0.234
		c-0.274-0.415-0.475-0.826-0.597-1.221c-0.122-0.394-0.184-0.919-0.184-1.563v-7.308C81.73,57.607,81.792,57.084,81.914,56.689"/>
	<path clip-path="url(#SVGID_2_)" d="M102.542,55.488c0.189,0.21,0.328,0.398,0.414,0.562c0.08,0.152,0.121,0.295,0.121,0.426
		c0,0.029-0.004,0.087-0.024,0.19c-0.017,0.089-0.039,0.181-0.065,0.272l-2.27,7.704l-3.035-9.406H95.83l-2.999,9.278l-2.022-7.255
		L90.79,57.21c-0.142-0.487-0.153-0.597-0.153-0.619c0-0.147,0.049-0.314,0.146-0.491c0.103-0.188,0.261-0.393,0.47-0.608
		l0.247-0.256h-5.577l0.321,0.267c0.37,0.308,0.669,0.628,0.89,0.95c0.221,0.324,0.405,0.71,0.547,1.146l3.384,10.863l0.033,0.107
		h2.172l2.766-8.789l2.817,8.789h2.169l3.642-10.831c0.136-0.406,0.321-0.791,0.55-1.142c0.229-0.352,0.539-0.724,0.92-1.103
		l0.257-0.258h-4.075L102.542,55.488z"/>
	<path clip-path="url(#SVGID_2_)" d="M116.46,67.263c-0.196,0.06-0.429,0.09-0.688,0.09h-1.993v-4.994h1.304
		c0.375,0,0.651,0.021,0.823,0.063c0.167,0.042,0.33,0.114,0.484,0.215l2.058,1.324v-4.463l-1.795,1.196
		c-0.261,0.178-0.493,0.295-0.691,0.349c-0.203,0.055-0.456,0.081-0.752,0.081h-1.431v-4.673h1.824c0.401,0,0.703,0.024,0.896,0.073
		c0.186,0.047,0.364,0.134,0.533,0.258l2.391,1.737v-3.283h-9.569l0.149,0.232c0.267,0.413,0.463,0.822,0.582,1.215
		c0.117,0.394,0.179,0.918,0.179,1.561v7.308c0,0.643-0.062,1.169-0.179,1.563c-0.119,0.396-0.315,0.807-0.582,1.221l-0.149,0.233
		h9.465l0.526-3.534l-2.79,1.929C116.856,67.101,116.657,67.203,116.46,67.263"/>
	<path clip-path="url(#SVGID_2_)" d="M131.045,61.106l-1.899-1.079c-0.835-0.475-1.373-0.851-1.599-1.117
		c-0.216-0.257-0.319-0.545-0.319-0.88c0-0.52,0.195-0.931,0.596-1.252c0.405-0.327,0.951-0.493,1.619-0.493
		c0.244,0,0.461,0.031,0.644,0.091c0.184,0.061,0.398,0.175,0.636,0.338l2.499,1.827v-3.16l-0.119-0.025
		c-0.553-0.116-1.104-0.204-1.644-0.26c-0.539-0.055-1.07-0.083-1.581-0.083c-1.629,0-2.901,0.321-3.779,0.957
		c-0.893,0.646-1.346,1.581-1.346,2.78c0,0.759,0.189,1.424,0.562,1.979c0.368,0.548,1.001,1.09,1.877,1.609l2.089,1.254
		c0.675,0.409,1.136,0.769,1.37,1.066c0.229,0.29,0.34,0.606,0.34,0.971c0,0.547-0.199,0.976-0.607,1.312
		c-0.413,0.338-0.968,0.51-1.649,0.51c-0.422,0-0.734-0.033-0.929-0.099c-0.192-0.064-0.39-0.186-0.587-0.36l-2.72-2.342v3.446
		l0.111,0.03c0.717,0.195,1.396,0.342,2.017,0.437c0.624,0.094,1.236,0.142,1.821,0.142c1.687,0,2.994-0.335,3.886-0.996
		c0.907-0.672,1.366-1.658,1.366-2.934c0-0.787-0.2-1.467-0.596-2.021C132.713,62.206,132.02,61.652,131.045,61.106"/>
	<path clip-path="url(#SVGID_2_)" d="M137.944,58.588l2.467-1.807c0.091-0.067,0.215-0.123,0.366-0.166
		c0.156-0.046,0.314-0.067,0.468-0.067h1.102v9.003c0,0.643-0.06,1.169-0.178,1.563c-0.12,0.396-0.313,0.808-0.573,1.222
		l-0.146,0.232h4.845l-0.15-0.233c-0.267-0.414-0.467-0.826-0.593-1.223c-0.125-0.395-0.188-0.92-0.188-1.562v-9.003h1.069
		c0.162,0,0.332,0.021,0.503,0.067c0.166,0.044,0.301,0.101,0.395,0.166l2.468,1.807v-3.353h-11.854V58.588z"/>
	<path clip-path="url(#SVGID_2_)" d="M160.324,67.263c-0.197,0.06-0.43,0.09-0.688,0.09h-1.992v-4.994h1.303
		c0.376,0,0.652,0.021,0.823,0.063c0.167,0.042,0.329,0.114,0.485,0.215l2.056,1.324v-4.463l-1.795,1.196
		c-0.26,0.178-0.492,0.295-0.69,0.349c-0.203,0.055-0.455,0.081-0.752,0.081h-1.43v-4.673h1.822c0.402,0,0.704,0.024,0.896,0.073
		c0.186,0.047,0.365,0.134,0.532,0.258l2.392,1.737v-3.283h-9.57l0.15,0.232c0.267,0.413,0.462,0.822,0.582,1.215
		c0.118,0.394,0.179,0.918,0.179,1.561v7.308c0,0.643-0.061,1.169-0.179,1.563c-0.12,0.396-0.315,0.807-0.582,1.221l-0.15,0.233
		h9.465l0.526-3.534l-2.789,1.929C160.72,67.101,160.52,67.203,160.324,67.263"/>
	<path clip-path="url(#SVGID_2_)" d="M179.521,67.271c-0.366-0.367-0.7-0.754-0.991-1.147l-3.057-4.288
		c0.99-0.205,1.763-0.585,2.299-1.13c0.586-0.593,0.882-1.372,0.882-2.315c0-0.739-0.212-1.371-0.629-1.88
		c-0.414-0.504-1.036-0.891-1.846-1.148c-0.123-0.045-0.347-0.076-0.701-0.097c-0.334-0.02-0.779-0.029-1.323-0.029h-5.81
		l0.145,0.23c0.267,0.429,0.468,0.851,0.593,1.253c0.126,0.401,0.189,0.914,0.189,1.524v7.308c0,0.615-0.063,1.132-0.189,1.534
		c-0.126,0.403-0.326,0.825-0.593,1.251l-0.145,0.232h4.866l-0.151-0.233c-0.267-0.415-0.465-0.826-0.588-1.222
		c-0.122-0.395-0.184-0.921-0.184-1.563V62.25l4.396,6.319h4.398l-0.37-0.273C180.291,67.984,179.89,67.64,179.521,67.271
		 M172.289,56.374h0.911c0.779,0,1.353,0.191,1.703,0.573c0.354,0.384,0.533,1.01,0.533,1.86c0,0.857-0.182,1.487-0.539,1.875
		c-0.354,0.384-0.925,0.578-1.697,0.578h-0.911V56.374z"/>
	<path clip-path="url(#SVGID_2_)" d="M193.139,55.236l0.149,0.232c0.268,0.413,0.463,0.823,0.582,1.215
		c0.118,0.394,0.179,0.918,0.179,1.561v5.726l-6.682-8.733h-3.521l0.15,0.232c0.267,0.413,0.463,0.822,0.582,1.215
		c0.119,0.394,0.179,0.918,0.179,1.561v7.308c0,0.643-0.06,1.169-0.179,1.563c-0.119,0.396-0.315,0.807-0.582,1.221l-0.15,0.233
		h3.559l-0.155-0.234c-0.273-0.414-0.475-0.825-0.596-1.22c-0.122-0.395-0.185-0.92-0.185-1.563v-6.564l7.466,9.679h1.848V58.126
		c0-0.584,0.063-1.075,0.184-1.46c0.122-0.388,0.317-0.791,0.576-1.198l0.149-0.232H193.139z"/>
	<path clip-path="url(#SVGID_2_)" fill="#005DAA" d="M9.081,72.845c0.11-0.39,0.288-0.795,0.53-1.203l0.135-0.229H5.324l0.13,0.227
		c0.241,0.422,0.422,0.836,0.536,1.235c0.114,0.396,0.171,0.901,0.171,1.503v7.196c0,0.608-0.058,1.117-0.171,1.514
		c-0.114,0.397-0.295,0.813-0.536,1.234l-0.13,0.226h4.421L9.61,84.321c-0.241-0.409-0.42-0.813-0.53-1.203
		c-0.111-0.39-0.167-0.909-0.167-1.543v-7.196C8.914,73.751,8.969,73.236,9.081,72.845"/>
	<path clip-path="url(#SVGID_2_)" fill="#005DAA" d="M19.27,83.259c-0.175,0.059-0.381,0.089-0.613,0.089h-1.314v-8.97
		c0-0.628,0.056-1.144,0.166-1.533c0.111-0.391,0.29-0.795,0.531-1.203l0.134-0.229h-4.405l0.135,0.229
		c0.241,0.407,0.417,0.81,0.525,1.197c0.108,0.389,0.163,0.905,0.163,1.539v7.196c0,0.634-0.054,1.153-0.163,1.544
		c-0.107,0.391-0.284,0.796-0.525,1.202l-0.135,0.228h8.103l0.479-3.503l-2.549,1.922C19.623,83.103,19.445,83.202,19.27,83.259"/>
	<path clip-path="url(#SVGID_2_)" fill="#005DAA" d="M31.118,83.259c-0.175,0.059-0.381,0.089-0.613,0.089H29.19v-8.97
		c0-0.627,0.056-1.143,0.167-1.533c0.111-0.39,0.29-0.795,0.53-1.203l0.135-0.229h-4.406l0.134,0.229
		c0.241,0.408,0.418,0.811,0.526,1.197c0.107,0.388,0.162,0.904,0.162,1.539v7.196c0,0.635-0.055,1.153-0.162,1.544
		s-0.284,0.795-0.525,1.202l-0.134,0.228h8.103l0.479-3.503l-2.549,1.922C31.471,83.103,31.292,83.202,31.118,83.259"/>
	<path clip-path="url(#SVGID_2_)" fill="#005DAA" d="M41.167,72.845c0.11-0.391,0.289-0.795,0.53-1.203l0.135-0.229h-4.421
		l0.13,0.227c0.242,0.422,0.422,0.837,0.536,1.235c0.114,0.396,0.171,0.901,0.171,1.503v7.196c0,0.606-0.058,1.117-0.171,1.514
		c-0.114,0.397-0.294,0.813-0.536,1.234l-0.13,0.226h4.421l-0.135-0.228c-0.241-0.407-0.419-0.813-0.53-1.203
		C41.056,82.728,41,82.209,41,81.575v-7.196C41,73.75,41.056,73.235,41.167,72.845"/>
	<path clip-path="url(#SVGID_2_)" fill="#005DAA" d="M54.377,71.642c0.241,0.407,0.417,0.81,0.526,1.197
		c0.107,0.388,0.161,0.904,0.161,1.539v5.601l-6.004-8.565h-3.205l0.135,0.229c0.24,0.407,0.417,0.81,0.525,1.197
		c0.108,0.388,0.163,0.904,0.163,1.539v7.196c0,0.635-0.055,1.153-0.163,1.544c-0.107,0.391-0.285,0.796-0.525,1.202l-0.135,0.228
		h3.241l-0.139-0.229c-0.247-0.408-0.429-0.813-0.54-1.202c-0.11-0.391-0.166-0.909-0.166-1.543v-6.427l6.713,9.496h1.692V74.263
		c0-0.575,0.057-1.062,0.167-1.44c0.111-0.382,0.286-0.779,0.521-1.182l0.133-0.228h-3.237L54.377,71.642z"/>
	<path clip-path="url(#SVGID_2_)" fill="#005DAA" d="M67.646,71.233c-1.919,0-3.453,0.634-4.56,1.883
		c-1.102,1.245-1.661,2.97-1.661,5.129c0,2.014,0.538,3.634,1.6,4.814c1.065,1.186,2.529,1.786,4.353,1.786
		c1.918,0,3.458-0.637,4.574-1.893c1.112-1.25,1.676-2.973,1.676-5.12c0-2.02-0.542-3.642-1.61-4.819
		C70.946,71.831,69.475,71.233,67.646,71.233 M69.805,82.246c-0.519,0.896-1.288,1.332-2.35,1.332c-0.984,0-1.708-0.446-2.214-1.362
		c-0.515-0.933-0.775-2.344-0.775-4.19c0-1.848,0.261-3.258,0.775-4.19c0.506-0.917,1.23-1.362,2.214-1.362
		c1.063,0,1.831,0.435,2.35,1.331c0.526,0.911,0.793,2.331,0.793,4.222C70.598,79.915,70.331,81.335,69.805,82.246"/>
	<path clip-path="url(#SVGID_2_)" fill="#005DAA" d="M81.362,72.845c0.11-0.39,0.289-0.795,0.53-1.203l0.135-0.229h-4.421
		l0.13,0.227c0.241,0.421,0.422,0.836,0.536,1.235c0.114,0.396,0.172,0.901,0.172,1.503v7.196c0,0.608-0.058,1.117-0.172,1.514
		c-0.114,0.398-0.295,0.814-0.536,1.234l-0.13,0.226h4.421l-0.135-0.228c-0.241-0.408-0.42-0.813-0.53-1.203
		c-0.11-0.391-0.167-0.909-0.167-1.543v-7.196C81.195,73.751,81.251,73.236,81.362,72.845"/>
	<path clip-path="url(#SVGID_2_)" fill="#005DAA" d="M91.947,77.198l-1.714-1.063c-0.753-0.466-1.238-0.836-1.439-1.098
		c-0.195-0.253-0.289-0.538-0.289-0.869c0-0.514,0.176-0.92,0.538-1.236c0.362-0.318,0.85-0.479,1.447-0.479
		c0.219,0,0.411,0.028,0.572,0.086c0.165,0.059,0.357,0.173,0.57,0.331l2.283,1.821V71.56l-0.117-0.027
		c-0.503-0.116-1.003-0.202-1.486-0.257c-0.486-0.054-0.966-0.082-1.43-0.082c-1.476,0-2.628,0.318-3.425,0.946
		c-0.806,0.636-1.215,1.557-1.215,2.736c0,0.745,0.17,1.4,0.505,1.944c0.333,0.54,0.904,1.074,1.698,1.588l1.886,1.234
		c0.606,0.402,1.022,0.756,1.234,1.05c0.204,0.281,0.307,0.603,0.307,0.958c0,0.541-0.179,0.965-0.548,1.295
		c-0.368,0.33-0.864,0.497-1.475,0.497c-0.376,0-0.655-0.031-0.829-0.096c-0.171-0.063-0.346-0.181-0.523-0.351l-2.484-2.334v3.417
		l0.108,0.032c0.647,0.193,1.261,0.337,1.823,0.431c0.564,0.093,1.118,0.14,1.647,0.14c1.528,0,2.713-0.331,3.522-0.984
		c0.819-0.662,1.233-1.635,1.233-2.888c0-0.773-0.181-1.441-0.537-1.988C93.456,78.283,92.829,77.737,91.947,77.198"/>
	<path clip-path="url(#SVGID_2_)" fill="#005DAA" d="M112.639,83.498c-0.163,0.053-0.359,0.08-0.586,0.08
		c-1.007,0-1.791-0.474-2.396-1.446c-0.611-0.981-0.92-2.341-0.92-4.039c0-1.77,0.315-3.176,0.939-4.18
		c0.617-0.995,1.43-1.479,2.481-1.479c0.219,0,0.389,0.021,0.507,0.06c0.117,0.039,0.236,0.106,0.357,0.206l2.694,2.092v-3.15
		l-0.112-0.03c-0.546-0.141-1.08-0.247-1.589-0.314c-0.509-0.066-1.008-0.102-1.483-0.102c-2.115,0-3.795,0.64-4.998,1.903
		c-1.199,1.261-1.807,3.019-1.807,5.225c0,2.104,0.545,3.734,1.621,4.847c1.078,1.112,2.66,1.677,4.704,1.677
		c0.398,0,0.886-0.035,1.449-0.106c0.563-0.071,1.208-0.174,1.92-0.309l0.107-0.019l0.434-3.302l-2.771,2.052
		C112.984,83.333,112.798,83.447,112.639,83.498"/>
	<path clip-path="url(#SVGID_2_)" fill="#005DAA" d="M125.776,71.233c-1.919,0-3.453,0.634-4.56,1.883
		c-1.103,1.245-1.661,2.97-1.661,5.129c0,2.013,0.538,3.634,1.6,4.814c1.065,1.186,2.529,1.786,4.353,1.786
		c1.919,0,3.458-0.637,4.574-1.893c1.111-1.25,1.676-2.973,1.676-5.12c0-2.02-0.542-3.642-1.609-4.819
		C129.076,71.831,127.605,71.233,125.776,71.233 M127.935,82.246c-0.519,0.896-1.287,1.332-2.35,1.332
		c-0.984,0-1.708-0.446-2.215-1.362c-0.515-0.934-0.776-2.344-0.776-4.19c0-1.848,0.262-3.257,0.776-4.19
		c0.507-0.917,1.231-1.362,2.215-1.362c1.063,0,1.831,0.435,2.35,1.331c0.526,0.91,0.794,2.331,0.794,4.222
		C128.729,79.915,128.461,81.335,127.935,82.246"/>
	<path clip-path="url(#SVGID_2_)" fill="#005DAA" d="M141.291,83.259c-0.175,0.059-0.381,0.089-0.612,0.089h-1.315v-8.97
		c0-0.627,0.057-1.143,0.167-1.533c0.109-0.39,0.288-0.795,0.53-1.203l0.134-0.229h-4.405l0.135,0.229
		c0.241,0.408,0.419,0.811,0.525,1.197c0.108,0.389,0.162,0.905,0.162,1.539v7.196c0,0.634-0.054,1.153-0.162,1.544
		c-0.107,0.391-0.284,0.795-0.525,1.202l-0.135,0.228h8.104l0.478-3.503l-2.549,1.922C141.644,83.103,141.465,83.202,141.291,83.259
		"/>
	<path clip-path="url(#SVGID_2_)" fill="#005DAA" d="M153.139,83.259c-0.175,0.059-0.381,0.089-0.613,0.089h-1.314v-8.97
		c0-0.627,0.056-1.143,0.166-1.533c0.111-0.39,0.289-0.795,0.531-1.203l0.135-0.229h-4.405l0.135,0.229
		c0.24,0.408,0.418,0.811,0.524,1.197c0.107,0.389,0.162,0.905,0.162,1.539v7.196c0,0.634-0.055,1.153-0.162,1.544
		c-0.106,0.391-0.284,0.795-0.524,1.202l-0.135,0.228h8.103l0.478-3.503l-2.548,1.922C153.491,83.103,153.313,83.202,153.139,83.259
		"/>
	<path clip-path="url(#SVGID_2_)" fill="#005DAA" d="M165.456,83.259c-0.176,0.059-0.383,0.089-0.614,0.089h-1.783v-4.914h1.161
		c0.335,0,0.583,0.02,0.736,0.062c0.148,0.04,0.293,0.109,0.432,0.207l1.884,1.324v-4.432l-1.647,1.198
		c-0.233,0.174-0.441,0.288-0.618,0.34c-0.181,0.053-0.406,0.08-0.671,0.08h-1.276v-4.599h1.631c0.359,0,0.629,0.024,0.802,0.071
		c0.164,0.046,0.324,0.13,0.473,0.251l2.188,1.733v-3.257h-8.667l0.136,0.229c0.24,0.408,0.417,0.811,0.525,1.197
		c0.106,0.389,0.162,0.905,0.162,1.539v7.196c0,0.634-0.056,1.153-0.162,1.544c-0.109,0.391-0.286,0.795-0.525,1.202l-0.136,0.228
		h8.572l0.479-3.503l-2.549,1.922C165.809,83.103,165.63,83.202,165.456,83.259"/>
	<path clip-path="url(#SVGID_2_)" fill="#005DAA" d="M179.968,80.297c0.047,0.125,0.083,0.266,0.106,0.416
		c0.023,0.154,0.036,0.355,0.036,0.603v2.175c-0.092,0.02-0.184,0.034-0.271,0.045c-0.12,0.015-0.243,0.022-0.363,0.022
		c-1.282,0-2.233-0.454-2.909-1.388c-0.677-0.936-1.02-2.324-1.02-4.127c0-1.76,0.338-3.151,1.003-4.136
		c0.662-0.979,1.557-1.455,2.733-1.455c0.22,0,0.425,0.027,0.607,0.084c0.182,0.056,0.353,0.144,0.509,0.259l2.577,1.931v-3.049
		l-0.114-0.029c-0.579-0.147-1.179-0.261-1.784-0.338c-0.605-0.076-1.239-0.116-1.881-0.116c-1.994,0-3.617,0.655-4.825,1.947
		c-1.206,1.289-1.816,3.032-1.816,5.181c0,2.04,0.548,3.651,1.625,4.788c1.081,1.138,2.611,1.717,4.547,1.717
		c0.725,0,1.434-0.038,2.108-0.11c0.678-0.075,1.339-0.184,1.966-0.324l0.118-0.027v-3.105c0-0.201,0.016-0.391,0.049-0.565
		c0.032-0.17,0.076-0.309,0.135-0.421l0.651-1.337h-4.352L179.968,80.297z"/>
	<path clip-path="url(#SVGID_2_)" fill="#005DAA" d="M193.95,82.967c-0.178,0.136-0.355,0.234-0.53,0.292
		c-0.175,0.059-0.38,0.089-0.613,0.089h-1.783v-4.914h1.161c0.335,0,0.583,0.02,0.737,0.062c0.147,0.04,0.294,0.109,0.431,0.207
		l1.884,1.324v-4.432l-1.647,1.198c-0.233,0.174-0.44,0.288-0.618,0.34c-0.18,0.053-0.405,0.08-0.671,0.08h-1.276v-4.599h1.631
		c0.359,0,0.629,0.024,0.802,0.071c0.165,0.046,0.324,0.13,0.474,0.251l2.187,1.733v-3.257h-8.667l0.136,0.229
		c0.241,0.408,0.418,0.811,0.525,1.197c0.106,0.389,0.161,0.905,0.161,1.539v7.196c0,0.634-0.055,1.153-0.162,1.544
		c-0.106,0.391-0.284,0.795-0.524,1.202l-0.136,0.228h8.572l0.478-3.503L193.95,82.967z"/>
	<path clip-path="url(#SVGID_2_)" d="M202.083,55.446v0.574h-1.371v3.899h-0.675V56.02h-1.359v-0.574H202.083z M206.409,59.919
		l-0.181-2.697c-0.022-0.35,0-0.775-0.012-1.214h-0.033c-0.112,0.415-0.247,0.888-0.383,1.281l-0.932,2.573h-0.517l-0.911-2.641
		c-0.112-0.36-0.225-0.799-0.325-1.214h-0.033c-0.012,0.428,0,0.81-0.023,1.214l-0.168,2.697h-0.652l0.349-4.474h0.888l0.877,2.428
		c0.111,0.338,0.202,0.707,0.314,1.123h0.022c0.102-0.416,0.202-0.808,0.314-1.134l0.876-2.417h0.877l0.337,4.474H206.409z"/>
</g>
</svg>
